<svg width="39" height="39" viewBox="0 0 39 39" fill="none" xmlns="http://www.w3.org/2000/svg">
<circle cx="19.5" cy="19.5" r="19.4" stroke="#D4D4D4" stroke-width="0.2"/>
<mask id="mask0_1_460" style="mask-type:alpha" maskUnits="userSpaceOnUse" x="7" y="7" width="24" height="24">
<rect x="7" y="7" width="24" height="24" fill="#D9D9D9"/>
</mask>
<g mask="url(#mask0_1_460)">
<path d="M14.825 20L19.725 24.9C19.925 25.1 20.0209 25.3333 20.0125 25.6C20.0042 25.8667 19.9 26.1 19.7 26.3C19.5 26.4833 19.2667 26.5792 19 26.5875C18.7334 26.5958 18.5 26.5 18.3 26.3L11.7 19.7C11.6 19.6 11.5292 19.4917 11.4875 19.375C11.4459 19.2583 11.425 19.1333 11.425 19C11.425 18.8667 11.4459 18.7417 11.4875 18.625C11.5292 18.5083 11.6 18.4 11.7 18.3L18.3 11.7C18.4834 11.5167 18.7125 11.425 18.9875 11.425C19.2625 11.425 19.5 11.5167 19.7 11.7C19.9 11.9 20 12.1375 20 12.4125C20 12.6875 19.9 12.925 19.7 13.125L14.825 18H26C26.2834 18 26.5209 18.0958 26.7125 18.2875C26.9042 18.4792 27 18.7167 27 19C27 19.2833 26.9042 19.5208 26.7125 19.7125C26.5209 19.9042 26.2834 20 26 20H14.825Z" fill="#1C1B1F"/>
</g>
</svg>
